<?xml version="1.0" standalone="no"?><!DOCTYPE svg PUBLIC "-//W3C//DTD SVG 1.1//EN" "http://www.w3.org/Graphics/SVG/1.1/DTD/svg11.dtd"><svg t="1759289304434" class="icon" viewBox="0 0 1024 1024" version="1.1" xmlns="http://www.w3.org/2000/svg" p-id="28171" xmlns:xlink="http://www.w3.org/1999/xlink" width="200" height="200"><path d="M128 810.666667V213.333333q0-85.333333 85.333333-85.333333h597.333334q85.333333 0 85.333333 85.333333v597.333334q0 85.333333-85.333333 85.333333H213.333333q-85.333333 0-85.333333-85.333333zM213.333333 213.333333v597.333334h597.333334V213.333333H213.333333z m42.666667 277.333334v-213.333334a21.333333 21.333333 0 0 1 21.333333-21.333333h213.333334a21.333333 21.333333 0 0 1 21.333333 21.333333v213.333334a21.333333 21.333333 0 0 1-21.333333 21.333333h-213.333334a21.333333 21.333333 0 0 1-21.333333-21.333333z m256 256v-213.333334a21.333333 21.333333 0 0 1 21.333333-21.333333h213.333334a21.333333 21.333333 0 0 1 21.333333 21.333333v213.333334a21.333333 21.333333 0 0 1-21.333333 21.333333h-213.333334a21.333333 21.333333 0 0 1-21.333333-21.333333z" p-id="28172"></path></svg>