<?xml version="1.0" standalone="no"?><!DOCTYPE svg PUBLIC "-//W3C//DTD SVG 1.1//EN" "http://www.w3.org/Graphics/SVG/1.1/DTD/svg11.dtd"><svg t="1759936119928" class="icon" viewBox="0 0 1210 1024" version="1.1" xmlns="http://www.w3.org/2000/svg" p-id="4762" xmlns:xlink="http://www.w3.org/1999/xlink" width="236.328125" height="200"><path d="M1070.545455 0H139.636364a139.636364 139.636364 0 0 0-139.636364 139.636364v744.727272a139.636364 139.636364 0 0 0 139.636364 139.636364h930.909091a139.636364 139.636364 0 0 0 139.636363-139.636364V139.636364a139.636364 139.636364 0 0 0-139.636363-139.636364m0 69.818182c38.493091 0 69.818182 31.325091 69.818181 69.818182v744.727272c0 38.493091-31.325091 69.818182-69.818181 69.818182H139.636364c-38.493091 0-69.818182-31.325091-69.818182-69.818182V139.636364c0-38.493091 31.325091-69.818182 69.818182-69.818182h930.909091" fill="#2A2B2E" p-id="4763"></path><path d="M372.084364 221.090909a58.228364 58.228364 0 0 0 0 116.363636 58.228364 58.228364 0 0 0 0-116.363636m0 186.181818A128.186182 128.186182 0 0 1 244.084364 279.272727a128.186182 128.186182 0 0 1 128-128A128.186182 128.186182 0 0 1 500.084364 279.272727a128.186182 128.186182 0 0 1-128 128M395.357091 575.720727a11.450182 11.450182 0 0 0-9.169455 4.421818l-160.209454 203.962182a11.170909 11.170909 0 0 0-1.349818 12.241455 11.170909 11.170909 0 0 0 10.472727 6.562909h739.979636a11.077818 11.077818 0 0 0 10.426182-6.516364 11.124364 11.124364 0 0 0-1.210182-12.241454l-230.632727-296.587637a11.496727 11.496727 0 0 0-9.216-4.468363 11.496727 11.496727 0 0 0-9.216 4.468363l-136.750545 175.848728a80.849455 80.849455 0 0 1-64 31.418181h-0.279273a80.989091 80.989091 0 0 1-64.046546-31.092363l-65.629091-83.595637a11.403636 11.403636 0 0 0-9.169454-4.421818m579.723636 297.006546H235.101091a80.849455 80.849455 0 0 1-73.262546-45.847273 80.802909 80.802909 0 0 1 9.216-85.922909l160.209455-203.915636a80.942545 80.942545 0 0 1 64.093091-31.185455c25.134545 0 48.500364 11.357091 64.046545 31.185455l65.629091 83.54909c3.072 3.909818 7.354182 4.235636 9.216 4.421819a11.310545 11.310545 0 0 0 9.122909-4.468364l136.750546-175.848727a80.989091 80.989091 0 0 1 64.325818-31.418182 80.989091 80.989091 0 0 1 64.279273 31.418182l230.679272 296.587636a80.989091 80.989091 0 0 1 8.843637 85.783273 80.942545 80.942545 0 0 1-73.169455 45.661091" fill="#000000" p-id="4764"></path></svg>