<?xml version="1.0" standalone="no"?><!DOCTYPE svg PUBLIC "-//W3C//DTD SVG 1.1//EN" "http://www.w3.org/Graphics/SVG/1.1/DTD/svg11.dtd"><svg t="1759289333674" class="icon" viewBox="0 0 1024 1024" version="1.1" xmlns="http://www.w3.org/2000/svg" p-id="33397" xmlns:xlink="http://www.w3.org/1999/xlink" width="200" height="200"><path d="M671.053824 253.083648c6.05184 3.01056 13.463552 0.52224 16.47616-5.5296l43.646976-87.740416c3.012608-6.05184 0.524288-13.4656-5.527552-16.474112l-112.308224-55.86944c-6.05184-3.01056-13.4656-0.52224-16.47616 5.5296l-43.649024 87.740416c-3.01056 6.05184-0.52224 13.4656 5.527552 16.474112L671.053824 253.083648z" fill="#A0A0A0" p-id="33398"></path><path d="M448.755712 719.599616c4.622336-4.931584 10.866688-13.91616 13.877248-19.968l203.35616-408.778752c3.012608-6.05184 0.524288-13.4656-5.527552-16.474112l-112.310272-55.873536c-6.05184-3.01056-13.463552-0.52224-16.47616 5.5296L329.13408 631.177216c-3.01056 6.05184-6.268928 16.474112-7.241728 23.16288l-32.774144 225.294336c-0.9728 6.688768 2.013184 8.126464 6.63552 3.19488L448.755712 719.599616z" fill="#A0A0A0" p-id="33399"></path></svg>