<?xml version="1.0" standalone="no"?><!DOCTYPE svg PUBLIC "-//W3C//DTD SVG 1.1//EN" "http://www.w3.org/Graphics/SVG/1.1/DTD/svg11.dtd"><svg t="1759289257314" class="icon" viewBox="0 0 1024 1024" version="1.1" xmlns="http://www.w3.org/2000/svg" p-id="19994" xmlns:xlink="http://www.w3.org/1999/xlink" width="200" height="200"><path d="M938.069333 297.749333a106.666667 106.666667 0 0 1-53.546666 179.84c-57.386667 12.010667-104.469333 37.077333-143.296 75.882667-3.050667 3.072-4.245333 4.970667-4.864 11.392l-0.362667 5.013333-0.149333 3.114667 0.682666 53.077333 0.042667 28.885334-0.341333 16.917333-0.298667 7.04c-4.608 82.197333-37.44 147.84-99.370667 187.690667a85.333333 85.333333 0 0 1-106.517333-11.413334l-115.669333-115.669333-192.042667 170.709333a45.248 45.248 0 0 1-63.872-63.893333l170.688-192.042667-130.986667-130.986666a85.333333 85.333333 0 0 1-14.144-101.930667l2.133334-3.648c37.632-60.16 102.186667-92.437333 185.237333-100.053333a533.973333 533.973333 0 0 1 28.544-1.642667l16.618667-0.469333 8.469333-0.149334 24.618667-0.298666 38.101333-0.149334 4.992-0.384 1.664-0.170666 2.368-0.384a5.12 5.12 0 0 0 2.026667-0.917334l1.066666-0.981333c36.266667-36.245333 61.418667-84.224 75.392-145.877333a106.666667 106.666667 0 0 1 179.456-51.84z m-60.352 60.352L694.4 174.72a21.333333 21.333333 0 0 0-35.904 10.368c-17.408 76.8-50.154667 139.264-98.261333 187.349333-25.813333 25.813333-54.506667 28.458667-92.693334 28.330667l-30.506666-0.298667h-13.354667a536.96 536.96 0 0 0-44.458667 2.133334c-58.666667 5.397333-98.901333 25.514667-120.682666 60.352l331.861333 331.861333c37.056-23.829333 57.173333-64.064 60.352-120.682667 0.746667-13.269333 0.874667-25.706667 0.768-37.418666l-0.234667-13.717334-0.853333-31.509333-0.064-11.626667c0.213333-34.048 5.077333-61.269333 30.549333-86.741333 50.688-50.688 112.725333-83.712 186.112-99.072a21.333333 21.333333 0 0 0 10.709334-35.968z" fill="#878F95" p-id="19995"></path></svg>